<?xml version="1.0" encoding="utf-8"?>
<!-- Generator: Adobe Illustrator 26.4.1, SVG Export Plug-In . SVG Version: 6.00 Build 0)  -->
<svg version="1.1" xmlns="http://www.w3.org/2000/svg" xmlns:xlink="http://www.w3.org/1999/xlink" x="0px" y="0px"
	 viewBox="0 0 334 98" style="enable-background:new 0 0 334 98;" xml:space="preserve">
<style type="text/css">
	.st0{fill:url(#XMLID_00000147180779207354404200000001937272226715460492_);}
	.st1{fill:url(#XMLID_00000039853175679044548740000001899176118009927301_);}
	.st2{fill:url(#XMLID_00000156588729348521426440000008350076685559080086_);}
	.st3{fill:url(#XMLID_00000065053881977733682780000008964052526776694172_);}
	.st4{fill:url(#XMLID_00000052786439754515804770000009124499285316867758_);}
	.st5{fill:url(#XMLID_00000016070589909380177790000005357668705975224763_);}
	.st6{fill:url(#XMLID_00000111910996472970072430000017262287327508215938_);}
	.st7{fill:url(#XMLID_00000056393063496086404370000005302628852196550809_);}
	.st8{fill:url(#XMLID_00000109023153553120693720000017273483836732434109_);}
	.st9{fill:#D1D3D4;}
	.st10{fill:#6F7271;}
	.st11{fill:#002E6D;}
</style>
<g id="Layer_1">
</g>
<g id="Layer_2">
	<g>
		<g>
			<g id="XMLID_36_">
				
					<linearGradient id="XMLID_00000124881030318325940960000016532476947302278809_" gradientUnits="userSpaceOnUse" x1="33.4262" y1="22.8862" x2="78.562" y2="45.5455">
					<stop  offset="0.3548" style="stop-color:#095CAF"/>
					<stop  offset="0.9462" style="stop-color:#072E66"/>
				</linearGradient>
				<path id="XMLID_53_" style="fill:url(#XMLID_00000124881030318325940960000016532476947302278809_);" d="M9.3,12.2
					c4.5-9.6,21.6-11.4,40.5-5.1l1.3,0.4c2.2,0.8,4.4,1.6,6.6,2.6l0.2,0.1l0.3,0.1l0.3,0.1l0.2,0.1l0.8,0.4c1.1,0.5,2.1,1,3.2,1.6
					l0.6,0.3C73.1,18,81.1,24.5,86.1,31c-2.7-0.4-5.8-1.3-9.1-2.8l-0.9-0.4c-2.6-3.5-6.7-6.9-11.8-9.9l-0.5-0.3
					c-1-0.6-2.1-1.2-3.3-1.7l-0.2-0.1l-0.2-0.1l-0.2-0.1l-0.2-0.1l-0.3-0.1l-0.2-0.1L59,15.2l-0.2-0.1L58.6,15L58.4,15l-0.2-0.1
					l-0.2-0.1l-0.2-0.1l-0.2-0.1l-0.2-0.1l-0.2-0.1l-0.2-0.1c-3.4-1.3-6.5-2.3-9.5-2.8l-2.3-0.4c-8.2-1-14.9,0.7-17,5.1
					c-3.3,6.7,5.3,17.2,19.2,23.5c10.9,4.9,21.8,5.7,27.6,2.5c5.7,2.1,11.5,3.4,16.7,3.6c-0.1,1.5-0.4,3-1.1,4.4
					C85.6,61.5,63.1,62,40.6,51.5C18.1,41,4.1,23.4,9.3,12.2z"/>
				<g id="XMLID_48_">
					
						<linearGradient id="XMLID_00000173876165103628775240000015182199021254210462_" gradientUnits="userSpaceOnUse" x1="69.2354" y1="3.3628" x2="69.1395" y2="18.8041">
						<stop  offset="0.3548" style="stop-color:#095CAF"/>
						<stop  offset="0.9462" style="stop-color:#072E66"/>
					</linearGradient>
					<path id="XMLID_52_" style="fill:url(#XMLID_00000173876165103628775240000015182199021254210462_);" d="M59.3,14.1l1.7,0.8
						c1.2,0.6,2.3,1.1,3.4,1.7l0.5,0.3c5,2.9,9.2,6.3,11.9,9.9l0.6,0.3c1.9,0.9,3.8,1.5,5.7,2c-3.5-4-8.1-7.8-13.3-11.2
						c-0.9-0.5-1.8-1-2.7-1.4l-1.7-0.8l-1.7-0.7c-2.9-1.1-5.7-2-8.4-2.6c0.8,0.3,1.6,0.6,2.4,0.9L59.3,14.1z"/>
					
						<linearGradient id="XMLID_00000146473974954660852340000007736842995038745242_" gradientUnits="userSpaceOnUse" x1="86.9917" y1="3.4731" x2="86.8958" y2="18.9143">
						<stop  offset="0.3548" style="stop-color:#095CAF"/>
						<stop  offset="0.9462" style="stop-color:#072E66"/>
					</linearGradient>
					<path id="XMLID_51_" style="fill:url(#XMLID_00000146473974954660852340000007736842995038745242_);" d="M90.4,47.8
						c0.1-0.3,0.1-0.6,0.2-0.9c-2.5-0.2-5.1-0.6-7.8-1.2C85.4,46.6,87.9,47.3,90.4,47.8z"/>
					
						<linearGradient id="XMLID_00000152967309301489836860000012914976316798355868_" gradientUnits="userSpaceOnUse" x1="33.4874" y1="3.1407" x2="33.3915" y2="18.582">
						<stop  offset="0.3548" style="stop-color:#095CAF"/>
						<stop  offset="0.9462" style="stop-color:#072E66"/>
					</linearGradient>
					<path id="XMLID_50_" style="fill:url(#XMLID_00000152967309301489836860000012914976316798355868_);" d="M47.2,52.2
						C25.2,42,11.5,25,16.4,14.4c2.4-5.2,9.2-8.1,18.7-8.1c4.4,0,9.1,0.6,14.1,1.8c-7-2.3-14-3.5-20.1-3.5c-9.5,0-16.3,3-18.7,8.1
						c-4.9,10.6,8.8,27.5,30.8,37.8c5.4,2.5,10.8,4.4,16.1,5.6C53.9,55,50.5,53.7,47.2,52.2z"/>
					
						<linearGradient id="XMLID_00000028286041320899467440000009569162585400761488_" gradientUnits="userSpaceOnUse" x1="69.6726" y1="3.3655" x2="69.5767" y2="18.8068">
						<stop  offset="0.3548" style="stop-color:#095CAF"/>
						<stop  offset="0.9462" style="stop-color:#072E66"/>
					</linearGradient>
					<path id="XMLID_49_" style="fill:url(#XMLID_00000028286041320899467440000009569162585400761488_);" d="M81.1,45.4
						c-1.9-0.5-3.9-1.1-5.8-1.8c-2.4,1.2-5.5,1.8-9,1.8c-2.7,0-5.5-0.3-8.4-1c5,1.7,10,2.7,14.5,2.7C75.7,47,78.7,46.5,81.1,45.4z"
						/>
				</g>
				
					<linearGradient id="XMLID_00000009574282589181253960000016172441821314569621_" gradientUnits="userSpaceOnUse" x1="47.2898" y1="23.6465" x2="108.6685" y2="23.6465">
					<stop  offset="0.1237" style="stop-color:#414042"/>
					<stop  offset="0.5753" style="stop-color:#A7A9AC"/>
					<stop  offset="0.9516" style="stop-color:#414042"/>
				</linearGradient>
				<path id="XMLID_46_" style="fill:url(#XMLID_00000009574282589181253960000016172441821314569621_);" d="M51.7,5.8
					c6.7-4.1,19.9-3.2,33.2,3c16.5,7.7,26.8,20.6,23,28.8c-3.8,8.2-20.3,8.6-36.8,0.9c-14.2-6.6-23.7-17-23.8-25
					c3.5,0.7,7.3,1.8,11.3,3.6c1.5,0.7,3,1.4,4.3,2.2c2.2,3.8,7,7.8,13.3,10.6c10.2,4.6,20.3,4.3,22.7-0.7
					c2.4-4.9-3.9-12.6-14.1-17.2c-8.7-3.9-17.4-4.3-21.2-1.2c-1.1-0.5-2.1-1.1-3.2-1.6C57.5,7.9,54.6,6.8,51.7,5.8z"/>
				<g id="XMLID_42_">
					
						<linearGradient id="XMLID_00000168115214453874581600000009018369369379534517_" gradientUnits="userSpaceOnUse" x1="63.9311" y1="22.5282" x2="82.5422" y2="51.4646">
						<stop  offset="0.1237" style="stop-color:#414042"/>
						<stop  offset="0.5753" style="stop-color:#A7A9AC"/>
						<stop  offset="0.9516" style="stop-color:#414042"/>
					</linearGradient>
					<path id="XMLID_45_" style="fill:url(#XMLID_00000168115214453874581600000009018369369379534517_);" d="M75.7,30.9
						c-6.1-2.7-11.2-6.8-13.6-10.8c-1.3-0.7-2.6-1.4-3.9-2c-3-1.4-6-2.4-9-3.1c2.1,0.6,4.2,1.4,6.3,2.4c1.4,0.6,2.7,1.3,3.9,2
						c2.5,4.1,7.5,8.1,13.6,10.8c2.5,1.1,5,2,7.4,2.5C78.9,32.2,77.3,31.7,75.7,30.9z"/>
					
						<linearGradient id="XMLID_00000004506351859794252700000010845554317943133861_" gradientUnits="userSpaceOnUse" x1="74.3423" y1="15.832" x2="92.9533" y2="44.7684">
						<stop  offset="0.1237" style="stop-color:#414042"/>
						<stop  offset="0.5753" style="stop-color:#A7A9AC"/>
						<stop  offset="0.9516" style="stop-color:#414042"/>
					</linearGradient>
					<path id="XMLID_44_" style="fill:url(#XMLID_00000004506351859794252700000010845554317943133861_);" d="M61.3,8.5
						c0.7,0.3,1.4,0.7,2.1,1c1.9-1.2,4.5-1.9,7.7-1.9c2.1,0,4.4,0.3,6.7,0.8c-3.2-1-6.5-1.5-9.3-1.5C65.6,6.9,63.2,7.4,61.3,8.5z"/>
					
						<linearGradient id="XMLID_00000027571081931736826660000018267405895087828148_" gradientUnits="userSpaceOnUse" x1="79.1822" y1="12.7191" x2="97.7933" y2="41.6555">
						<stop  offset="0.1237" style="stop-color:#414042"/>
						<stop  offset="0.5753" style="stop-color:#A7A9AC"/>
						<stop  offset="0.9516" style="stop-color:#414042"/>
					</linearGradient>
					<path id="XMLID_43_" style="fill:url(#XMLID_00000027571081931736826660000018267405895087828148_);" d="M84.4,9.8
						c-3.8-1.8-7.6-3.1-11.3-4c2.9,0.9,5.8,2,8.7,3.3c1.6,0.7,3.1,1.5,4.6,2.4c4.6,2.2,8.4,5.1,10.9,8.1c6.1,5.9,9,12.3,6.9,16.8
						c-1.7,3.7-6.6,5.8-13.5,5.8h0c-3.3,0-6.8-0.5-10.5-1.4c4.6,1.4,9.1,2.1,13.1,2.1h0c6.8,0,11.8-2.1,13.5-5.8
						C110.3,29.6,100.1,17.1,84.4,9.8z"/>
				</g>
				<path id="XMLID_37_" class="st9" d="M112.5,44.7c-2.3,5-9.3,7.1-18.1,6.3c0.3-0.6,0.5-1.3,0.7-2c8,0.4,14.2-1.7,16.4-6.4
					c1.2-2.7,1-5.9-0.5-9.2C113.3,37.5,114,41.4,112.5,44.7z M84.3,16.8c-5.8-3.2-11.8-4.5-15.8-3.7c0.8,0.6,1.6,1.2,2.4,1.8
					c3.9-0.3,9.1,1.1,14.2,3.9c5.2,2.9,9.1,6.7,10.9,10.2C94.8,25,90.4,20.3,84.3,16.8z M5.1,15.7C5.5,14.8,6,14,6.7,13.2
					c-1.9,1.3-3.3,2.9-4.2,4.9c-5.2,11.2,8.8,28.8,31.3,39.3c12.6,5.9,25.2,8.3,34.7,7.3c-9-0.2-19.8-2.8-30.6-7.9
					C14.3,45.8-0.3,27.4,5.1,15.7z M45.1,15.8c-9.9-2.5-16.9,5-3.6,16.9c-8.4-9-5.8-16.6,1.3-15.3c5.5,13.9,14.7,20.8,27.2,23.2
					C59.5,38.1,46.5,27.7,45.1,15.8z"/>
			</g>
			<g id="XMLID_19_">
				<g>
					<path id="XMLID_00000031891150099288231640000015755216569801673377_" class="st10" d="M189.6,42.2h-6.7v1.7h4.7v1.4h-4.7v3.5
						h-1.6v-8h8.3V42.2z"/>
					<path id="XMLID_00000089543107279467339710000015199689570178864061_" class="st10" d="M195.9,48.8h-1.6v-8h1.6V48.8z"/>
					<path id="XMLID_00000092450307603681142360000007119506933240203679_" class="st10" d="M211,48.8h-2.3l-5.4-6.7v6.7h-1.6v-8
						h2.3l5.4,6.7v-6.7h1.6V48.8z"/>
					<path id="XMLID_00000045613276611449196540000015301317359505988763_" class="st10" d="M226.3,48.8h-1.7l-0.9-1.7h-5.4
						l-0.9,1.7h-1.7l4.4-8h1.9L226.3,48.8z M222.8,45.6l-1.9-3.5l-1.9,3.5H222.8z"/>
					<path id="XMLID_00000133503504350924649530000003044524776453177791_" class="st10" d="M240.1,48.8h-2.3l-5.4-6.7v6.7h-1.6v-8
						h2.3l5.4,6.7v-6.7h1.6V48.8z"/>
					<path id="XMLID_00000153679796630302195090000015419682865364222877_" class="st10" d="M255.6,42.7l-1.4,0.5
						c-0.9-0.9-1.9-1.3-3.3-1.3c-1.1,0-2,0.3-2.7,0.8c-0.7,0.5-1,1.2-1,2c0,0.9,0.3,1.5,1,2.1c0.7,0.5,1.6,0.8,2.7,0.8
						c1.3,0,2.4-0.4,3.3-1.3l1.3,0.7c-1.2,1.3-2.7,2-4.6,2c-1.6,0-2.9-0.4-3.9-1.2s-1.5-1.8-1.5-3c0-1.3,0.6-2.3,1.7-3.2
						c1-0.7,2.2-1.1,3.6-1.1C252.7,40.5,254.3,41.2,255.6,42.7z"/>
					<path id="XMLID_00000078039132674689965300000000858404859541163450_" class="st10" d="M269.5,48.8h-8.6v-8h8.3v1.4h-6.7v1.7
						h4.7v1.4h-4.7v2.1h7V48.8z"/>
				</g>
			</g>
			<g id="XMLID_4_">
				<path id="XMLID_17_" class="st11" d="M132.4,17.4v15.2h-5.6V17.4h-9.4v-4.4h24.3v4.4H132.4z"/>
				<path id="XMLID_14_" class="st11" d="M169.7,32.5l-2.3-4.1h-12.1l-2.3,4.1h-5.8l10.9-19.6h6.4l10.9,19.6H169.7z M161.4,17.6
					l-3.5,6.5h7.1L161.4,17.6z"/>
				<path id="XMLID_12_" class="st11" d="M205.4,32.5l-12.4-13h-0.1v13h-5.6V12.9h6.5l12.4,13h0.1v-13h5.6v19.6H205.4z"/>
				<path id="XMLID_9_" class="st11" d="M253.2,23.1c0,2.9-1.2,5.3-3.7,7.1c-2,1.5-4.8,2.4-7.9,2.4h-14.3V12.9h13.6
					C248.5,12.9,253.2,17,253.2,23.1z M247.3,23c0-3.2-2.6-5.7-6.2-5.7h-8.3v10.8h8.3C244.6,28.1,247.3,25.8,247.3,23z"/>
				<path id="XMLID_7_" class="st11" d="M267.1,32.5V12.9h21.3v4.4h-15.7v3.2h10.7V25h-10.7v3.1h16.5v4.4H267.1z"/>
				<path id="XMLID_5_" class="st11" d="M326.9,32.5v-13h-0.1l-8.9,10.6l-8.9-10.6h-0.1v13h-5.6V12.9h6.5l8.1,9.8l8.1-9.8h6.5v19.6
					H326.9z"/>
			</g>
			<rect id="XMLID_1_" x="117.4" y="53.4" class="st10" width="215.1" height="1.9"/>
		</g>
		<g>
			<g>
				<path class="st10" d="M311.4,80.5l-1.3,9.4h1.8l0.9-6c0-0.1,0.2-0.3,0.6-0.7c0.4-0.4,0.7-0.7,0.9-0.8c0.3-0.2,0.5-0.3,0.7-0.4
					c0.2-0.1,0.4-0.1,0.6-0.1c0.3,0,0.6,0.1,0.8,0.4c0.2,0.3,0.3,0.6,0.3,1.1c0,0.2,0,0.4-0.1,0.6l-0.9,6h1.8l0.9-6
					c0-0.3,0.1-0.5,0.1-0.7c0-0.8-0.2-1.5-0.6-2.1c-0.4-0.5-1-0.8-1.7-0.8c-1.1,0-2.1,0.6-3.1,1.8l0,0l0.2-1.7H311.4z M302.7,93.1
					c-0.5-0.2-0.7-0.5-0.7-0.8c0-0.4,0.3-0.7,1-1c0.7-0.3,1.2-0.4,1.4-0.4c0.2,0,0.6,0.1,1.2,0.4s0.9,0.6,0.9,0.9
					c0,0.3-0.2,0.6-0.5,0.9s-0.8,0.3-1.5,0.3C303.8,93.4,303.2,93.3,302.7,93.1 M303.8,85.5c-0.3-0.4-0.5-0.8-0.5-1.4
					c0-0.6,0.2-1.1,0.6-1.5c0.4-0.4,0.8-0.7,1.3-0.7c0.5,0,0.9,0.2,1.2,0.5c0.3,0.4,0.5,0.8,0.5,1.4c0,0.6-0.2,1.1-0.5,1.5
					c-0.3,0.4-0.8,0.7-1.3,0.7C304.5,86,304.1,85.8,303.8,85.5 M305.1,80.5c-1,0-1.8,0.4-2.5,1.1c-0.7,0.7-1,1.6-1,2.7
					c0,1.3,0.6,2.2,1.7,2.7c-0.6,0.2-1,0.4-1.4,0.7c-0.3,0.3-0.5,0.7-0.5,1c0,0.7,0.5,1.3,1.6,1.7c-1.8,0.4-2.7,1-2.7,2
					c0,0.7,0.4,1.3,1.2,1.7c0.8,0.5,1.8,0.7,3,0.7c1.1,0,2-0.3,2.8-0.8c0.7-0.5,1.1-1.2,1.1-1.9c0-0.6-0.2-1.1-0.7-1.6
					c-0.4-0.4-1.2-0.8-2.3-1.1c-1.1-0.3-1.7-0.5-1.9-0.6c-0.2-0.1-0.3-0.3-0.3-0.4c0-0.2,0.1-0.4,0.3-0.5c0.2-0.1,0.7-0.3,1.5-0.4
					c0.8-0.1,1.4-0.3,1.9-0.6c0.5-0.2,0.9-0.6,1.2-1.2c0.3-0.6,0.5-1.2,0.5-2c0-0.7-0.2-1.3-0.6-1.9h1.8l0.2-1.4H305.1z M298.5,80.5
					l-1.3,9.4h1.8l1.3-9.4H298.5z M299,78.2c0.2,0.2,0.4,0.3,0.7,0.3c0.3,0,0.5-0.1,0.7-0.3c0.2-0.2,0.3-0.4,0.3-0.7
					c0-0.3-0.1-0.5-0.3-0.7c-0.2-0.2-0.4-0.3-0.7-0.3c-0.3,0-0.5,0.1-0.7,0.3s-0.3,0.4-0.3,0.7C298.7,77.8,298.8,78,299,78.2
					 M293.1,80.2c-0.9,0-1.6,0.2-2.2,0.7c-0.5,0.5-0.8,1.2-0.8,2c0,0.4,0.1,0.9,0.4,1.3c0.3,0.4,0.8,0.9,1.6,1.5
					c0.8,0.6,1.3,1,1.5,1.2c0.2,0.2,0.3,0.5,0.3,0.7c0,0.3-0.1,0.6-0.3,0.7c-0.2,0.2-0.5,0.3-0.9,0.3c-0.8,0-1.7-0.5-2.9-1.4
					l-0.3,1.7c1.1,0.8,2.2,1.2,3.3,1.2c0.8,0,1.5-0.3,2.1-0.8c0.6-0.5,0.8-1.2,0.8-2c0-0.5-0.1-0.9-0.4-1.4c-0.3-0.5-0.8-1-1.7-1.5
					c-0.8-0.5-1.3-0.9-1.5-1.1c-0.2-0.2-0.2-0.4-0.2-0.6c0-0.3,0.1-0.5,0.4-0.7c0.2-0.2,0.6-0.3,0.9-0.3c0.8,0,1.8,0.4,2.8,1.2v-1.9
					C295,80.5,294.1,80.2,293.1,80.2 M285.1,81.6c0.5,0,1,0.2,1.3,0.6c0.3,0.4,0.4,0.9,0.4,1.6h-4C283.3,82.3,284.1,81.6,285.1,81.6
					 M285,88.7c-0.7,0-1.3-0.3-1.8-0.8c-0.5-0.5-0.7-1.2-0.7-2.1c0-0.3,0-0.6,0.1-0.9h5.9c0-0.3,0.1-0.6,0.1-0.9
					c0-1.2-0.3-2.1-1-2.8c-0.6-0.7-1.4-1.1-2.4-1.1c-1.3,0-2.3,0.5-3.2,1.6c-0.9,1-1.3,2.3-1.3,3.9c0,1.4,0.4,2.5,1.1,3.3
					c0.7,0.8,1.7,1.2,2.9,1.2c1.1,0,2.2-0.4,3.2-1.1l0.3-1.7C286.9,88.3,285.9,88.7,285,88.7 M275.8,88.7c-1,0-1.8-0.3-2.3-0.8
					c-0.5-0.5-0.8-1.2-0.8-2.2c0-1.1,0.4-2.1,1.2-2.9c0.8-0.8,1.9-1.2,3.2-1.2h0.5l-1,7C276.4,88.7,276.1,88.7,275.8,88.7
					 M278.4,75.6l-0.6,4.6H277c-1.9,0-3.4,0.6-4.5,1.8c-1.1,1.2-1.7,2.5-1.7,3.9c0,1.4,0.4,2.5,1.3,3.2c0.9,0.8,2.1,1.1,3.7,1.1
					c0.9,0,1.7-0.1,2.4-0.3l2-14.3H278.4z M263,80.5l-3,6.5l-1.3-6.5h-1.8l1.8,8.8l-2.6,5.4h1.9l6.8-14.3H263z M250,82.9
					c0-0.3,0.3-0.6,0.7-0.8c0.4-0.2,0.9-0.4,1.3-0.4c0.6,0,1.1,0.2,1.5,0.7c0.4,0.5,0.5,1.1,0.5,2c0,1.3-0.3,2.3-1,3.1
					c-0.7,0.8-1.6,1.2-2.8,1.2h-1L250,82.9z M249.2,75.6l-2,14.5c0.7,0.1,1.5,0.2,2.5,0.2c2,0,3.5-0.5,4.6-1.6
					c1.1-1.1,1.6-2.4,1.6-4.1c0-1.3-0.3-2.3-0.9-3.1c-0.6-0.8-1.4-1.2-2.4-1.2c-0.8,0-1.6,0.3-2.3,1l0.8-5.7H249.2z M234,93.1
					c-0.5-0.2-0.7-0.5-0.7-0.8c0-0.4,0.3-0.7,1-1c0.7-0.3,1.2-0.4,1.4-0.4c0.2,0,0.6,0.1,1.2,0.4c0.6,0.3,0.9,0.6,0.9,0.9
					c0,0.3-0.2,0.6-0.5,0.9s-0.8,0.3-1.5,0.3C235.1,93.4,234.4,93.3,234,93.1 M235,85.5c-0.3-0.4-0.5-0.8-0.5-1.4
					c0-0.6,0.2-1.1,0.6-1.5c0.4-0.4,0.8-0.7,1.3-0.7c0.5,0,0.9,0.2,1.2,0.5s0.5,0.8,0.5,1.4c0,0.6-0.2,1.1-0.5,1.5
					c-0.3,0.4-0.8,0.7-1.3,0.7C235.8,86,235.3,85.8,235,85.5 M236.3,80.5c-1,0-1.8,0.4-2.5,1.1c-0.7,0.7-1,1.6-1,2.7
					c0,1.3,0.6,2.2,1.7,2.7c-0.6,0.2-1,0.4-1.4,0.7c-0.3,0.3-0.5,0.7-0.5,1c0,0.7,0.5,1.3,1.6,1.7c-1.8,0.4-2.7,1-2.7,2
					c0,0.7,0.4,1.3,1.2,1.7c0.8,0.5,1.8,0.7,3,0.7c1.1,0,2-0.3,2.8-0.8c0.7-0.5,1.1-1.2,1.1-1.9c0-0.6-0.2-1.1-0.7-1.6
					c-0.4-0.4-1.2-0.8-2.3-1.1c-1.1-0.3-1.7-0.5-1.9-0.6c-0.2-0.1-0.3-0.3-0.3-0.4c0-0.2,0.1-0.4,0.3-0.5c0.2-0.1,0.7-0.3,1.5-0.4
					c0.8-0.1,1.4-0.3,1.9-0.6c0.5-0.2,0.9-0.6,1.2-1.2c0.3-0.6,0.5-1.2,0.5-2c0-0.7-0.2-1.3-0.6-1.9h1.8l0.2-1.4H236.3z M224,80.5
					l-1.3,9.4h1.8l0.9-6c0-0.1,0.2-0.3,0.6-0.7c0.4-0.4,0.7-0.7,0.9-0.8c0.3-0.2,0.5-0.3,0.7-0.4c0.2-0.1,0.4-0.1,0.6-0.1
					c0.3,0,0.6,0.1,0.8,0.4c0.2,0.3,0.3,0.6,0.3,1.1c0,0.2,0,0.4-0.1,0.6l-0.9,6h1.8l0.9-6c0-0.3,0.1-0.5,0.1-0.7
					c0-0.8-0.2-1.5-0.6-2.1c-0.4-0.5-1-0.8-1.7-0.8c-1.1,0-2.1,0.6-3.1,1.8l0,0l0.2-1.7H224z M219.9,80.5l-1.3,9.4h1.8l1.3-9.4
					H219.9z M220.4,78.2c0.2,0.2,0.4,0.3,0.7,0.3c0.3,0,0.5-0.1,0.7-0.3c0.2-0.2,0.3-0.4,0.3-0.7c0-0.3-0.1-0.5-0.3-0.7
					c-0.2-0.2-0.4-0.3-0.7-0.3c-0.3,0-0.5,0.1-0.7,0.3c-0.2,0.2-0.3,0.4-0.3,0.7C220.1,77.8,220.2,78,220.4,78.2 M214.8,88.6
					c-0.8,0-1.4-0.3-1.9-0.8c-0.5-0.5-0.7-1.2-0.7-2.1c0-1.1,0.4-2,1.2-2.8c0.8-0.8,1.8-1.2,3.1-1.2c0.5,0,0.9,0.1,1.4,0.2l0.2-1.6
					c-0.6-0.1-1.2-0.2-1.6-0.2c-1.8,0-3.3,0.5-4.4,1.6c-1.1,1.1-1.7,2.4-1.7,4c0,1.3,0.4,2.4,1.1,3.2c0.8,0.8,1.8,1.2,3,1.2
					c0.9,0,1.8-0.2,2.6-0.7l0.2-1.7C216.5,88.3,215.7,88.6,214.8,88.6 M202,80.5l-1.3,9.4h1.8l0.9-6c0-0.1,0.2-0.3,0.6-0.7
					c0.4-0.4,0.7-0.7,0.9-0.8c0.3-0.2,0.5-0.3,0.7-0.4c0.2-0.1,0.4-0.1,0.6-0.1c0.3,0,0.6,0.1,0.8,0.4c0.2,0.3,0.3,0.6,0.3,1.1
					c0,0.2,0,0.4-0.1,0.6l-0.9,6h1.8l0.9-6c0-0.3,0.1-0.5,0.1-0.7c0-0.8-0.2-1.5-0.6-2.1c-0.4-0.5-1-0.8-1.7-0.8
					c-1.1,0-2.1,0.6-3.1,1.8l0,0l0.2-1.7H202z M196.1,88c-0.5,0.4-1,0.6-1.4,0.6c-0.5,0-1-0.2-1.3-0.7c-0.4-0.5-0.5-1.1-0.5-1.9
					c0-1.1,0.4-2.1,1.1-3c0.7-0.9,1.8-1.3,3.2-1.3c0.2,0,0.4,0,0.6,0l-0.8,5.5C196.9,87.3,196.6,87.5,196.1,88 M197.4,80.2
					c-2,0-3.6,0.6-4.7,1.7c-1.1,1.2-1.7,2.6-1.7,4.4c0,1,0.3,1.9,0.9,2.6c0.6,0.7,1.3,1.1,2.2,1.1c0.9,0,1.7-0.4,2.5-1.3l0,0.1
					l-0.2,1.1h1.8l1.3-9.4C199,80.3,198.2,80.2,197.4,80.2 M182.5,80.5l-1.3,9.4h1.8l0.9-6c0-0.1,0.2-0.3,0.6-0.7
					c0.4-0.4,0.7-0.7,0.9-0.8c0.3-0.2,0.5-0.3,0.7-0.4c0.2-0.1,0.4-0.1,0.6-0.1c0.3,0,0.6,0.1,0.8,0.4c0.2,0.3,0.3,0.6,0.3,1.1
					c0,0.2,0,0.4-0.1,0.6l-0.9,6h1.8l0.9-6c0-0.3,0.1-0.5,0.1-0.7c0-0.8-0.2-1.5-0.6-2.1c-0.4-0.5-1-0.8-1.7-0.8
					c-1.1,0-2.1,0.6-3.1,1.8l0,0l0.2-1.7H182.5z M178.2,80.5l-1.4,9.4h1.8l1.4-9.4H178.2z M174.7,80.5c0.2-1.4,0.5-2.4,0.8-2.8
					c0.3-0.5,0.9-0.7,1.6-0.7c0.8,0,1.3,0.4,1.4,1.1h1.7c0-0.8-0.3-1.5-0.8-1.9c-0.6-0.5-1.3-0.7-2.2-0.7c-1.3,0-2.2,0.4-2.9,1.2
					c-0.7,0.8-1.1,2.1-1.4,3.9h-1.4l-0.2,1.6h1.4l-1.7,11.8h1.7l1.8-11.8h2l0.2-1.6H174.7z M160.1,80.5l-1.3,9.4h1.8l0.7-5.3
					c0-0.1,0.2-0.5,0.6-1c0.4-0.6,0.7-0.9,1-1.1c0.3-0.2,0.6-0.3,0.9-0.3c0.4,0,0.7,0.1,1.1,0.3v-2c-0.2-0.1-0.5-0.1-0.8-0.1
					c-0.5,0-0.8,0.1-1.2,0.4c-0.3,0.3-0.8,0.8-1.3,1.6l0,0l0.3-1.8H160.1z M154.1,81.6c0.5,0,1,0.2,1.3,0.6c0.3,0.4,0.4,0.9,0.4,1.6
					h-4C152.3,82.3,153,81.6,154.1,81.6 M154,88.7c-0.7,0-1.3-0.3-1.8-0.8c-0.5-0.5-0.7-1.2-0.7-2.1c0-0.3,0-0.6,0.1-0.9h5.9
					c0-0.3,0.1-0.6,0.1-0.9c0-1.2-0.3-2.1-1-2.8c-0.6-0.7-1.4-1.1-2.4-1.1c-1.3,0-2.3,0.5-3.2,1.6c-0.9,1-1.3,2.3-1.3,3.9
					c0,1.4,0.4,2.5,1.1,3.3c0.7,0.8,1.7,1.2,2.9,1.2c1.1,0,2.2-0.4,3.2-1.1l0.3-1.7C155.9,88.3,154.8,88.7,154,88.7 M147.2,80.5
					l0.3-1.9h-1.8l-0.3,1.9h-1.7l-0.2,1.4h1.7l-1,5.7c0,0.2,0,0.3,0,0.5c0,0.6,0.2,1.2,0.7,1.6c0.4,0.4,1.1,0.6,1.8,0.6
					c0.7,0,1.3-0.1,2-0.4l0.1-1.7c-0.7,0.4-1.2,0.6-1.7,0.6c-0.7,0-1-0.3-1-0.9c0-0.2,0-0.4,0.1-0.7l0.9-5.2h1.9l0.2-1.4H147.2z
					 M140.8,80.5l0.3-1.9h-1.8l-0.3,1.9h-1.7l-0.2,1.4h1.7l-1,5.7c0,0.2,0,0.3,0,0.5c0,0.6,0.2,1.2,0.7,1.6c0.4,0.4,1.1,0.6,1.8,0.6
					c0.7,0,1.3-0.1,2-0.4l0.1-1.7c-0.7,0.4-1.2,0.6-1.7,0.6c-0.7,0-1-0.3-1-0.9c0-0.2,0-0.4,0.1-0.7l0.9-5.2h1.9l0.2-1.4H140.8z
					 M132.7,81.6c0.5,0,1,0.2,1.3,0.6c0.3,0.4,0.4,0.9,0.4,1.6h-4C130.9,82.3,131.6,81.6,132.7,81.6 M132.6,88.7
					c-0.7,0-1.3-0.3-1.8-0.8c-0.5-0.5-0.7-1.2-0.7-2.1c0-0.3,0-0.6,0.1-0.9h5.9c0-0.3,0.1-0.6,0.1-0.9c0-1.2-0.3-2.1-1-2.8
					c-0.6-0.7-1.4-1.1-2.4-1.1c-1.3,0-2.3,0.5-3.2,1.6c-0.9,1-1.3,2.3-1.3,3.9c0,1.4,0.4,2.5,1.1,3.3c0.7,0.8,1.7,1.2,2.9,1.2
					c1.1,0,2.2-0.4,3.2-1.1l0.3-1.7C134.5,88.3,133.4,88.7,132.6,88.7 M121.5,82.9c0.9,0,1.7,0.3,2.4,0.8c0.7,0.6,1,1.3,1,2.1
					c0,0.8-0.3,1.4-0.9,1.8c-0.6,0.4-1.4,0.6-2.5,0.6h-2.2l0.8-5.4H121.5z M121.5,77.2c1.6,0,2.5,0.7,2.5,2c0,0.6-0.2,1.2-0.7,1.6
					c-0.5,0.4-1.1,0.6-1.9,0.6h-1l0.6-4.1C121.1,77.2,121.3,77.2,121.5,77.2 M117.3,89.9h4.5c1.5,0,2.8-0.4,3.7-1.1
					c1-0.7,1.4-1.7,1.4-2.9c0-1.9-1-3.2-3-3.9c1.3-0.6,2-1.6,2-2.8c0-1.1-0.4-2-1.2-2.7c-0.8-0.6-1.9-1-3.4-1h-2.1L117.3,89.9z"/>
			</g>
			<g>
				<path class="st10" d="M321.8,77.8c0-1,0.2-1.9,0.7-2.7c0.5-0.8,1.1-1.5,2-2c0.8-0.5,1.8-0.7,2.7-0.7c1,0,1.9,0.2,2.7,0.7
					c0.8,0.5,1.5,1.1,2,2c0.5,0.8,0.7,1.7,0.7,2.7c0,1-0.2,1.9-0.7,2.7s-1.1,1.5-2,2c-0.8,0.5-1.7,0.7-2.7,0.7c-1,0-1.9-0.2-2.7-0.7
					c-0.8-0.5-1.5-1.2-2-2C322,79.7,321.8,78.8,321.8,77.8z M322.8,77.8c0,0.8,0.2,1.5,0.6,2.2c0.4,0.7,0.9,1.2,1.6,1.6
					c0.7,0.4,1.4,0.6,2.2,0.6c0.8,0,1.5-0.2,2.2-0.6c0.7-0.4,1.2-0.9,1.6-1.6c0.4-0.7,0.6-1.4,0.6-2.2c0-0.8-0.2-1.5-0.6-2.2
					s-0.9-1.2-1.6-1.6c-0.7-0.4-1.4-0.6-2.2-0.6c-0.8,0-1.5,0.2-2.2,0.6c-0.7,0.4-1.2,0.9-1.6,1.6C323,76.3,322.8,77,322.8,77.8z
					 M327.7,74.9c0.5,0,1,0.1,1.3,0.4c0.3,0.3,0.5,0.7,0.5,1.1c0,0.5-0.1,0.8-0.4,1.1c-0.3,0.3-0.7,0.5-1.2,0.5v0
					c0.2,0.1,0.4,0.2,0.6,0.4c0.2,0.2,0.4,0.5,0.7,1l0.7,1.2h-1.3l-0.3-0.5c-0.2-0.5-0.5-0.9-0.7-1.1c-0.2-0.3-0.4-0.5-0.5-0.6
					c-0.2-0.1-0.4-0.2-0.6-0.2H326v2.4H325v-5.8H327.7z M327.3,77.4c0.3,0,0.6-0.1,0.8-0.2c0.2-0.1,0.3-0.3,0.3-0.6
					s-0.1-0.5-0.3-0.6c-0.2-0.1-0.5-0.2-0.8-0.2H326v1.6H327.3z"/>
			</g>
		</g>
	</g>
</g>
</svg>
